<svg width="67" height="80" viewBox="0 0 67 80" fill="none" xmlns="http://www.w3.org/2000/svg">
<path d="M28.8135 0.230469C28.5886 0.836127 28.376 1.43615 28.1426 1.97852C26.9297 4.79909 25.5868 7.5573 24.4805 10.4189C23.6285 12.6214 22.8648 14.8844 22.0957 17.1084C22.6024 17.1045 22.5474 16.4108 22.7168 16.0156C22.8055 15.8102 23.1534 15.2697 23.3447 15.1816C23.6407 15.0472 24.184 15.278 24.1387 15.5986C23.5451 17.0109 23.2697 18.5272 22.7393 19.9629C22.2897 21.1794 21.8812 22.3899 21.4375 23.6182C20.1024 27.3091 18.4339 30.977 17.1797 34.668C15.3969 39.9159 14.0084 45.3088 12.0107 50.4863C11.1667 52.6732 10.6933 54.857 9.99316 57.0693C9.57903 58.3759 8.8749 60.1359 8.68555 61.4443C8.6461 61.7201 8.72127 62.0318 8.66211 62.2939C8.62237 62.4642 8.36604 62.7772 8.27539 63.002C7.77056 64.2618 7.22766 66.9062 7.01074 68.2949C6.9497 68.6881 6.95405 69.7898 6.83008 70.0039C6.71372 70.2015 6.58923 70.1507 6.55176 69.9453C6.48872 69.5912 6.52419 68.5984 6.54785 68.1973C6.61489 67.1079 6.90282 66.0005 7.05469 64.9189C7.17498 64.0622 7.11208 63.9504 7.44336 63.1211C7.77468 62.2898 7.86285 61.6419 8.00879 60.7715C8.80948 55.9733 10.579 51.7403 11.8115 47.0869C12.0422 46.2127 12.4221 45.0002 12.4912 44.124C12.4971 44.0439 12.5468 43.8538 12.4209 43.8711C10.8373 49.8037 8.54573 55.5293 6.94043 61.4561C6.39415 63.4767 5.88094 65.5272 5.66992 67.6143C5.63452 67.9603 5.71128 68.3532 5.66602 68.7012C5.61476 69.0981 5.39429 69.5951 5.3252 70.0371C5.06291 71.7466 5.11195 74.7925 5.7627 76.4004C6.32869 77.799 7.02329 77.8873 8.05273 78.7832C8.39232 79.0791 8.84138 79.6034 9.31348 80H0V33.0127C0 16.195 12.5612 2.31 28.8135 0.230469ZM36.1035 55.6953C36.1509 55.6404 36.384 55.2772 36.4688 55.3672C34.4769 59.2343 32.696 63.3051 31.8125 67.585C30.9449 71.7842 31.0572 74.728 33.1572 78.5439C33.4225 79.0254 33.8584 79.5296 34.3867 80H12.0947C13.5501 79.4662 15.2754 78.7055 16.4541 78.0186C16.6693 77.8932 17.594 77.2746 17.667 77.1064C17.7038 77.0206 17.5206 76.948 17.5576 76.7939C17.6148 76.5574 18.1156 76.2932 18.2441 76.1562C18.5005 75.8824 18.668 75.52 18.9795 75.2129C19.1787 75.0153 20.0155 74.3096 20.2324 74.2744C20.8339 74.1767 21.7532 74.8958 21.7217 74.0273C21.0355 73.6049 21.2932 73.1769 22.0088 73.1221C22.2099 73.1064 22.8231 73.4469 22.7285 72.9619C22.6122 72.3634 22.4783 72.3415 23.0146 71.874C23.904 71.0995 25.3299 70.2821 25.5352 68.9912C25.5608 68.8249 25.3914 68.6858 25.6201 68.4922C26.1959 68.0052 27.3333 68.5741 27.6924 67.5674C27.7496 67.4089 27.7326 67.1818 27.8115 67.0488C27.8569 66.9726 28.0285 66.9308 28.1113 66.8193C28.4006 66.4221 28.1919 65.5211 28.2549 65.0361L27.8154 64.9268L28.2178 64.6016C28.3672 64.6625 28.3045 64.9385 28.3281 64.9619C28.3675 65.0003 28.7505 64.9433 28.8232 64.873C28.8807 64.8144 29.0214 64.3425 28.9863 64.3105H28.6572C28.5173 64.0623 28.9029 63.9151 29.0176 63.7236C29.1043 63.577 29.1086 63.3811 29.1914 63.2402C29.716 62.3581 30.606 61.9747 31.2607 61.292C31.4539 61.0906 31.5622 60.8343 31.8086 60.5996C31.9486 60.4666 32.1935 60.3703 32.2842 60.2705C32.4159 60.1239 32.3967 59.9093 32.4932 59.751C33.0019 58.9041 34.2043 58.0333 34.8926 57.2568C35.3264 56.7659 35.6795 56.1961 36.1035 55.6953ZM34.6113 0C52.1393 0.815223 66.0996 15.2831 66.0996 33.0127V80H45.2598C45.7504 79.6415 46.0655 79.1348 46.5957 78.7559C47.3668 78.2062 48.2838 77.9617 49.0332 77.4648C53.5691 74.4486 58.2414 69.932 61.7676 65.8027C63.0712 64.277 65.0925 62.0447 65.7295 60.2061C65.9129 59.6781 66.139 59.1364 66.0938 58.5693L66.0977 58.5654C65.9952 58.5576 65.8983 58.5654 65.7998 58.5986C65.5208 58.6977 63.7669 60.6587 63.4199 61.0381C59.3436 65.4881 55.6218 70.5771 50.4727 73.8691C47.7927 75.5826 45.0318 76.7131 42.1191 77.9473C40.8116 78.5008 38.2156 78.848 36.8232 78.6172C35.5476 78.406 35.1399 78.2351 34.8066 76.9795C34.5424 75.986 34.1379 73.7644 34.1299 72.7725C34.1259 72.1622 34.4413 71.3632 34.5557 70.7373C35.5339 65.3485 38.1771 58.911 41.2949 54.3652C42.7166 52.2903 44.1285 51.0228 45.8223 49.2568C46.5145 48.5351 47.0511 47.6681 47.7256 46.9268C49.1041 45.4128 50.761 44.1706 52.4609 43.0361L52.6201 43.0127C53.1703 43.2729 53.6838 43.3195 54.0684 43.8379C55.4547 45.704 52.5676 48.4274 51.6348 49.9336C51.5126 50.1761 51.4826 50.5476 51.6699 50.7627C51.7706 50.88 52.1098 50.9834 52.2715 51.001C52.7271 51.0518 54.105 51.0635 54.5391 50.9971C55.7539 50.8093 57.3237 47.6774 57.4814 46.5684C57.9111 43.5426 55.7637 41.4987 52.9102 41.0586C51.7783 40.8845 51.7861 41.1111 50.873 41.25C49.6603 41.4358 49.118 41.1428 47.8838 41.8486C45.2451 43.3626 41.7342 47.134 39.9277 49.5947C38.9694 50.9012 38.2952 52.4485 37.2383 53.6182C36.4712 54.469 35.5875 55.24 34.8164 56.0889C33.4852 57.5559 32.2914 59.156 30.9307 60.5996C29.7909 61.8122 28.4382 62.9309 27.3359 64.1611C25.0266 66.7372 22.9382 68.8327 20.2266 71.002C19.6606 71.4538 19.1927 72.0227 18.6484 72.4922C16.7928 74.0863 14.3634 75.9231 12.2158 77.0947C11.2613 77.615 10.2312 78.3701 9.64355 77.0557C9.05797 75.743 9.20975 72.6701 9.33398 71.1836C9.38923 70.5225 9.70154 69.9004 9.76465 69.21C9.8514 68.2653 9.77177 67.5395 10.0479 66.583C10.3042 65.6969 10.4746 65.1528 10.6758 64.2217C11.0308 62.5809 11.5533 61.4034 12.0107 59.874C12.8075 57.2119 13.3974 54.4482 14.3223 51.8389C15.8506 47.5259 17.1063 43.1206 18.6445 38.8174C20.5811 33.4031 22.8531 28.0979 24.8252 22.6914C25.4247 21.0444 26.08 19.4263 26.6953 17.7812C28.0619 14.1178 29.46 10.4172 31.1973 6.90039C31.8993 5.47639 32.7474 4.45701 33.5205 3.16797C33.806 2.69276 34.3903 0.953785 34.6113 0ZM6.41211 72.123H6.41406L6.19043 72.1621C6.05044 71.9196 6.20648 71.6945 6.47852 71.6572L6.41211 72.123ZM27.0127 65.9121C26.9793 66.1458 27.0942 66.5716 26.9414 66.7471C26.9079 66.7842 26.1817 67.2705 26.1113 67.3066C25.8925 67.4181 25.6439 67.457 25.3994 67.4375C25.2303 67.2866 26.5605 66.0824 26.7539 65.9824C26.8427 65.9355 26.8924 65.8828 27.0127 65.9121ZM34.2188 62.9824C34.0885 63.3279 33.8108 62.6005 34.1992 62.6377L34.2188 62.9824ZM34.4219 61.4756C34.5991 61.4425 34.6252 61.621 34.7139 61.7305H34.7119L34.6035 61.8379L34.4297 61.7207L34.4219 61.4756ZM34.9326 60.0928C35.0017 60.048 35.1753 60.1084 35.2227 60.2002L34.9678 60.6719C34.7767 60.613 34.8912 60.1182 34.9326 60.0908V60.0928ZM36.3975 57.6924C36.4152 57.9642 36.4136 58.3924 36.0312 58.3457C36.0155 58.0388 36.0074 57.6925 36.3975 57.6924ZM36.9795 56.208C36.9935 56.1361 37.1794 56.1553 37.2021 56.167C37.3501 56.2628 37.1901 56.6718 37.0225 56.7441C36.8276 56.6033 36.9243 56.382 36.9795 56.2061V56.208ZM38.4531 53.7646C38.4334 53.9973 38.5473 54.1659 38.4805 54.4043C38.3917 54.7231 38.005 54.9797 37.8965 54.5674C37.8354 54.3366 38.3682 53.6632 38.4531 53.7646ZM25.4541 9.99609C26.0418 9.87482 25.9648 10.5673 25.5664 10.624C25.1329 10.6862 24.9891 10.0921 25.4541 9.99609ZM26.502 8.52734C26.3836 8.0227 26.2869 7.41866 27.0186 7.61426C27.2372 8.01904 26.9888 8.5408 26.502 8.52734Z" fill="#C4BDAF"/>
</svg>
